PathFileType	4	(X/Y/Z)	C:/Users/opensim2020/Desktop/walking_exp_matlab/subject06_walking21_straight_01.trc																																																																																																																																		
DataRate	CameraRate	NumFrames	NumMarkers	Units	OrigDataRate	OrigDataStartFrame	OrigNumFrames																																																																																																																														
100	100	4	44	mm	100	875	155																																																																																																																														
Frame#	Time	LFHD			RFHD			LBHD			RBHD			C7			T10			CLAV			STRN			RBAK			LSHO			LUPA			LELB			LFRM			LWRA			LWRB			LFIN			RSHO			RUPA			RELB			RFRM			RWRA			RWRB			RFIN			LASI			RASI			LPSI			RPSI			LTHI			LKNE			LTIB			LANK			LHEE			LTOE			RTHI			RKNE			RTIB			RANK			RHEE			RTOE			*39			*40			*41			*42			*43		
		X1	Y1	Z1	X2	Y2	Z2	X3	Y3	Z3	X4	Y4	Z4	X5	Y5	Z5	X6	Y6	Z6	X7	Y7	Z7	X8	Y8	Z8	X9	Y9	Z9	X10	Y10	Z10	X11	Y11	Z11	X12	Y12	Z12	X13	Y13	Z13	X14	Y14	Z14	X15	Y15	Z15	X16	Y16	Z16	X17	Y17	Z17	X18	Y18	Z18	X19	Y19	Z19	X20	Y20	Z20	X21	Y21	Z21	X22	Y22	Z22	X23	Y23	Z23	X24	Y24	Z24	X25	Y25	Z25	X26	Y26	Z26	X27	Y27	Z27	X28	Y28	Z28	X29	Y29	Z29	X30	Y30	Z30	X31	Y31	Z31	X32	Y32	Z32	X33	Y33	Z33	X34	Y34	Z34	X35	Y35	Z35	X36	Y36	Z36	X37	Y37	Z37	X38	Y38	Z38	X39	Y39	Z39	X40	Y40	Z40	X41	Y41	Z41	X42	Y42	Z42	X43	Y43	Z43	X44	Y44	Z44
																																																																																																																																					
117	1.16	518.84607	1670.32788	-1027.87915	506.43201	1643.75122	-899.22339	387.59293	1616.6261	-1048.69495	376.07581	1595.10437	-921.76483	384.5036	1450.33289	-1001.65936	354.43805	1122.35718	-1006.73602	496.19122	1375.50098	-1004.76978	539.23041	1201.60742	-1023.47168	316.41132	1274.45703	-929.01965	438.72922	1414.64185	-1163.22388	461.17932	1215.3197	-1238.4071	476.91925	1102.95288	-1249.27747	551.32281	971.07782	-1264.56909	646.90869	889.98499	-1211.59131	598.45752	861.75928	-1255.17944	666.2243	801.7226	-1243.55005	450.58838	1399.68994	-842.14362	404.71249	1202.98962	-759.83643	407.1337	1081.14941	-747.16425	412.81305	961.22168	-727.81799	461.23358	816.81415	-754.0979	406.367	823.05316	-716.7193	437.0119	744.26093	-712.3299	518.9903	959.42676	-1129.42737	543.36908	973.80072	-911.54285	365.10358	983.79749	-1087.74951	388.66614	997.32281	-921.06927	495.1673	635.87653	-1171.19788	537.62054	478.50098	-1151.87817	355.42401	320.78412	-1133.59338	224.00063	213.42632	-1089.07922	186.72118	233.93956	-1042.99036	294.06931	87.80923	-1081.62	525.48584	641.28271	-855.35205	541.11743	518.37524	-888.0592	497.00101	253.05208	-884.62842	468.22906	68.8093	-927.11676	422.02621	44.46831	-965.63452	617.58661	36.15749	-944.71759	412.81616	1701.24719	-975.5257	NaN	NaN	NaN	NaN	NaN	NaN	NaN	NaN	NaN	NaN	NaN	NaN
118	1.17	532.85669	1671.41602	-1027.88013	520.38611	1644.81995	-899.20337	401.39841	1617.6001	-1048.5575	389.92712	1596.21997	-921.57678	398.18246	1451.26025	-1001.12622	367.69156	1123.54626	-1005.81665	509.76996	1376.4314	-1004.39838	552.64801	1202.43677	-1022.78418	330.1817	1275.68665	-927.73999	452.15076	1415.36658	-1162.76904	473.25122	1215.80908	-1237.95923	487.39725	1103.25854	-1248.8905	557.82526	969.32562	-1265.97632	651.40466	884.58154	-1214.89563	601.30701	858.36194	-1257.89807	667.16949	795.84363	-1247.63159	464.53183	1401.04297	-841.77179	420.08682	1204.16113	-758.99384	423.79932	1082.32751	-746.31567	431.70023	962.4447	-727.2464	483.96716	819.41364	-753.49414	427.99066	824.16479	-716.6239	460.41098	746.11169	-712.49866	532.91711	960.87329	-1128.40015	555.71722	974.13245	-910.31079	378.79205	985.16351	-1087.49414	401.28964	998.08014	-920.64026	514.96002	638.92383	-1171.9187	561.48596	482.75232	-1152.85925	384.14145	319.76416	-1134.52832	256.61615	207.47952	-1089.69861	218.66631	226.01529	-1043.15454	332.18027	85.4887	-1084.05469	532.90015	640.62408	-855.00482	546.81445	517.24341	-887.09064	498.466	252.88422	-884.73419	468.44647	68.97947	-927.57019	421.32803	44.84582	-965.49628	617.73083	35.98021	-944.53857	426.72327	1702.34595	-975.56641	NaN	NaN	NaN	NaN	NaN	NaN	NaN	NaN	NaN	NaN	NaN	NaN
119	1.18	546.50793	1671.74768	-1027.90723	534.2467	1645.62927	-899.24677	415.27026	1618.41602	-1048.55566	403.76248	1597.23364	-921.51801	411.70743	1452.09998	-1000.71136	381.18658	1124.36401	-1004.89941	523.2522	1377.14392	-1003.99841	566.13342	1203.11462	-1022.07935	343.79819	1276.75403	-926.66028	465.52686	1415.89575	-1162.37842	485.10025	1216.04919	-1237.55432	497.54584	1103.3064	-1248.65112	563.92865	967.42224	-1267.36523	655.55737	879.30115	-1218.29907	603.9408	855.27905	-1260.82996	667.70477	790.23541	-1251.90198	478.39584	1402.16284	-841.42188	435.4216	1205.1062	-758.1084	440.42474	1083.22632	-745.50494	450.42365	963.50464	-726.67627	504.98648	821.62384	-753.98425	449.78806	825.2041	-716.52118	483.80316	747.83826	-712.64819	547.05243	962.13446	-1127.21301	568.06635	974.2171	-908.86377	392.55905	986.43848	-1087.35583	413.90298	998.42877	-920.30353	534.44061	641.89655	-1172.97595	584.98071	487.00055	-1153.71448	412.82788	317.69849	-1135.2666	289.99487	200.4982	-1090.34583	251.49092	216.94322	-1043.23792	371.24551	82.62199	-1086.89551	540.04926	639.92627	-855.02496	552.74371	516.22815	-886.203	500.02515	252.64235	-884.93219	468.63889	69.12517	-927.9585	421.44983	45.16736	-965.95697	617.88574	35.75451	-944.29034	440.81052	1703.18311	-975.61572	NaN	NaN	NaN	NaN	NaN	NaN	NaN	NaN	NaN	NaN	NaN	NaN
120	1.19	560.51978	1672.15503	-1028.04468	548.28113	1646.31116	-899.30096	429.12122	1619.10706	-1048.55493	417.66214	1598.10559	-921.51898	424.97794	1452.54419	-1000.17023	394.56671	1125.0946	-1004.09088	536.78644	1377.68469	-1003.6781	579.58789	1203.57629	-1021.27216	357.36765	1277.53979	-925.62683	478.87747	1416.17603	-1162.0802	496.60376	1216.02747	-1237.24158	507.51019	1103.28979	-1248.5177	569.76746	965.59882	-1268.81885	659.45557	874.19476	-1222.05005	606.11285	852.06812	-1263.36462	668.02911	784.92267	-1256.58044	492.15405	1403.021	-841.08588	450.66632	1205.79968	-757.17999	456.73358	1083.90259	-744.52057	469.08289	964.34552	-726.06079	526.4845	823.82269	-754.29498	471.4845	826.12036	-716.43231	507.11923	749.5437	-712.95416	561.49268	963.28979	-1125.88281	580.45758	974.00616	-907.22076	406.42841	987.5321	-1087.21814	426.3627	998.46753	-919.99567	553.67432	644.86902	-1174.10742	607.8382	491.12915	-1154.6167	441.86642	315.39047	-1136.1189	323.96747	192.66805	-1091.18701	285.10675	206.80743	-1043.48682	410.86685	79.12489	-1089.91016	547.98474	639.26508	-854.70795	558.51825	515.24213	-885.05042	502.3255	252.30585	-884.95703	468.90979	69.26069	-928.25323	421.68057	45.4502	-966.35797	618.07617	35.53096	-943.94403	454.90436	1703.84094	-975.65253	NaN	NaN	NaN	NaN	NaN	NaN	NaN	NaN	NaN	NaN	NaN	NaN
